<svg viewBox="75 110 250 280" fill="none" xmlns="http://www.w3.org/2000/svg">
  <defs>
    <radialGradient id="bodyGrad" cx="50%" cy="40%" r="55%">
      <stop offset="0%" stop-color="#60A5FA" />
      <stop offset="60%" stop-color="#3B82F6" />
      <stop offset="100%" stop-color="#2563EB" />
    </radialGradient>
    <radialGradient id="rimLight" cx="30%" cy="20%" r="70%">
      <stop offset="0%" stop-color="rgba(255,255,255,0.15)" />
      <stop offset="100%" stop-color="rgba(255,255,255,0)" />
    </radialGradient>
    <radialGradient id="eyeGrad" cx="45%" cy="40%" r="50%">
      <stop offset="0%" stop-color="#1e293b" />
      <stop offset="100%" stop-color="#0f172a" />
    </radialGradient>
    <linearGradient id="bodyHighlight" x1="0%" y1="0%" x2="0%" y2="100%">
      <stop offset="0%" stop-color="rgba(255,255,255,0.12)" />
      <stop offset="100%" stop-color="rgba(255,255,255,0)" />
    </linearGradient>
  </defs>

  <!-- Legs -->
  <ellipse cx="170" cy="345" rx="18" ry="28" fill="#2563EB" />
  <ellipse cx="170" cy="345" rx="18" ry="28" fill="url(#rimLight)" />
  <ellipse cx="168" cy="368" rx="22" ry="12" fill="#2563EB" />
  <ellipse cx="230" cy="345" rx="18" ry="28" fill="#2563EB" />
  <ellipse cx="230" cy="345" rx="18" ry="28" fill="url(#rimLight)" />
  <ellipse cx="232" cy="368" rx="22" ry="12" fill="#2563EB" />

  <!-- Main cloud body -->
  <ellipse cx="200" cy="240" rx="110" ry="105" fill="url(#bodyGrad)" />
  <ellipse cx="155" cy="170" rx="55" ry="50" fill="url(#bodyGrad)" />
  <ellipse cx="245" cy="175" rx="48" ry="45" fill="url(#bodyGrad)" />
  <ellipse cx="200" cy="155" rx="45" ry="42" fill="url(#bodyGrad)" />
  <ellipse cx="120" cy="220" rx="42" ry="50" fill="url(#bodyGrad)" />
  <ellipse cx="280" cy="225" rx="40" ry="48" fill="url(#bodyGrad)" />
  <ellipse cx="200" cy="300" rx="95" ry="50" fill="url(#bodyGrad)" />

  <!-- Highlights -->
  <ellipse cx="200" cy="240" rx="110" ry="105" fill="url(#bodyHighlight)" />
  <ellipse cx="155" cy="170" rx="55" ry="50" fill="url(#bodyHighlight)" />
  <ellipse cx="245" cy="175" rx="48" ry="45" fill="url(#bodyHighlight)" />
  <ellipse cx="200" cy="155" rx="45" ry="42" fill="url(#bodyHighlight)" />
  <ellipse cx="200" cy="240" rx="110" ry="105" fill="url(#rimLight)" />

  <!-- Antenna bumps -->
  <ellipse cx="175" cy="128" rx="12" ry="16" fill="#3B82F6" />
  <ellipse cx="175" cy="128" rx="12" ry="16" fill="url(#bodyHighlight)" />
  <ellipse cx="175" cy="120" rx="8" ry="8" fill="#60A5FA" opacity="0.6" />
  <ellipse cx="225" cy="132" rx="10" ry="14" fill="#3B82F6" />
  <ellipse cx="225" cy="132" rx="10" ry="14" fill="url(#bodyHighlight)" />
  <ellipse cx="225" cy="125" rx="7" ry="7" fill="#60A5FA" opacity="0.6" />

  <!-- Eyes -->
  <ellipse cx="170" cy="228" rx="24" ry="26" fill="url(#eyeGrad)" />
  <ellipse cx="163" cy="218" rx="6" ry="7" fill="white" opacity="0.85" />
  <ellipse cx="176" cy="234" rx="3" ry="3.5" fill="white" opacity="0.4" />
  <ellipse cx="230" cy="228" rx="24" ry="26" fill="url(#eyeGrad)" />
  <ellipse cx="223" cy="218" rx="6" ry="7" fill="white" opacity="0.85" />
  <ellipse cx="236" cy="234" rx="3" ry="3.5" fill="white" opacity="0.4" />

  <!-- Mouth -->
  <path d="M 188 262 Q 200 274 212 262" fill="none" stroke="#2563EB" stroke-width="2.5" stroke-linecap="round" opacity="0.5" />

  <!-- Cheek blush -->
  <ellipse cx="145" cy="248" rx="14" ry="8" fill="#60A5FA" opacity="0.15" />
  <ellipse cx="255" cy="248" rx="14" ry="8" fill="#60A5FA" opacity="0.15" />

  <!-- Specular highlight -->
  <ellipse cx="185" cy="165" rx="30" ry="12" fill="white" opacity="0.08" />
</svg>
